# xmcd
#
# Track frame offsets:
# 182
# 15462
# 27400
# 39067
# 50575
# 60927
# 73555
# 86162
# 97087
# 108675
# 118802
# 132752
# 142022
# 153102
# 167280
# 178230
# 186767
# 195080
# 202862
# 212075
# 227687
# 239857
# 251612
# 266510
# 281602
# 289772
# 301730
#
# Disc length: 4218 seconds
#
#
# Revision: 0
# Processed by: cddbd v1.5.1PL0 Copyright (c) Steve Scherf et al.
# Submitted via: FreeRIP 2.90 
#
DISCID=7a10781b
DTITLE=Jerry Lee Lewis - Jerry Lee Lewis -The Sun Years
DYEAR=1989
DGENRE=Rock and Roll
TTITLE0=What'd I say
TTITLE1=See See Rider
TTITLE2=Hang up my rock and roll shoes
TTITLE3=John Henry
TTITLE4=When my blue moon turns to gold again
TTITLE5=When I Get Paid
TTITLE6=Love made a fool of me
TTITLE7=No more than I get
TTITLE8=My Bonnie
TTITLE9=I forgot to remember to forget you
TTITLE10=Cold cold heart
TTITLE11=Livin' Lovin' Wreck
TTITLE12=What'd I say
TTITLE13=It won't happen with me
TTITLE14=See see rider -2
TTITLE15=I love you because
TTITLE16=Save the last dance for me
TTITLE17=My girl Josephine
TTITLE18=High powered woman
TTITLE19=Ramblin' rose
TTITLE20=Rockin the boat of love
TTITLE21=Money
TTITLE22=Feelin' good
TTITLE23=Whole lotta twistin' gion' on
TTITLE24=High powered woman -2
TTITLE25=I know what it means
TTITLE26=Feelin' good -2
EXTD=
EXTT0=
EXTT1=
EXTT2=
EXTT3=
EXTT4=
EXTT5=
EXTT6=
EXTT7=
EXTT8=
EXTT9=
EXTT10=
EXTT11=
EXTT12=
EXTT13=
EXTT14=
EXTT15=
EXTT16=
EXTT17=
EXTT18=
EXTT19=
EXTT20=
EXTT21=
EXTT22=
EXTT23=
EXTT24=
EXTT25=
EXTT26=
PLAYORDER=
